<?xml version="1.0" standalone="no"?>
<!DOCTYPE svg PUBLIC "-//W3C//DTD SVG 20010904//EN"
 "http://www.w3.org/TR/2001/REC-SVG-20010904/DTD/svg10.dtd">
<svg version="1.0" xmlns="http://www.w3.org/2000/svg"
 width="900.000000pt" height="512.000000pt" viewBox="0 0 900.000000 512.000000"
 preserveAspectRatio="xMidYMid meet">

<g transform="translate(0.000000,512.000000) scale(0.100000,-0.100000)"
fill="#000000" stroke="none">
<path d="M4990 5009 c-536 -62 -1009 -357 -1287 -804 -165 -264 -248 -535
-260 -851 -19 -497 156 -942 509 -1295 459 -459 1146 -620 1767 -413 528 176
952 615 1105 1143 55 190 70 290 70 491 0 185 -10 274 -50 432 -167 666 -722
1174 -1404 1282 -117 19 -349 27 -450 15z m-155 -450 c121 -67 228 -127 238
-133 15 -10 17 -33 17 -258 l0 -247 -237 -172 c-131 -95 -243 -176 -250 -181
-7 -6 -95 18 -247 68 l-235 78 -10 46 c-5 25 -33 166 -62 314 l-53 269 69 65
c140 130 225 191 379 273 l90 48 40 -24 c23 -13 140 -78 261 -146z m1179 54
c89 -57 185 -134 264 -213 50 -48 63 -67 58 -83 -2 -12 -30 -153 -61 -313
l-57 -291 -226 -73 c-125 -40 -232 -75 -237 -77 -6 -2 -121 77 -255 175 l-245
178 0 252 0 253 274 154 275 153 70 -35 c39 -20 102 -56 140 -80z m-1714
-1124 c118 -39 220 -76 226 -83 11 -11 187 -550 187 -571 0 -6 -66 -98 -148
-204 -103 -133 -153 -191 -164 -188 -9 2 -150 24 -315 48 l-298 44 -38 75
c-65 130 -113 298 -144 498 -3 19 37 61 228 237 127 118 235 215 241 215 5 0
107 -32 225 -71z m2200 -140 c260 -240 242 -208 211 -366 -23 -118 -67 -250
-120 -363 l-39 -84 -314 -47 c-172 -26 -316 -45 -321 -42 -4 2 -73 90 -153
194 l-145 190 95 292 95 292 218 72 c120 39 224 72 231 72 7 1 116 -94 242
-210z m-855 -811 c72 -94 134 -178 138 -188 6 -12 -13 -68 -66 -191 -41 -96
-95 -224 -121 -286 -26 -61 -53 -114 -60 -116 -26 -10 -222 -36 -296 -40 -146
-7 -426 24 -450 49 -4 5 -45 97 -90 204 -45 107 -99 234 -120 282 l-38 87 142
186 141 185 345 -1 345 0 130 -171z"/>
<path d="M3435 4362 c-41 -25 -172 -167 -258 -277 -414 -535 -709 -1300 -851
-2205 -29 -186 -66 -493 -66 -549 0 -50 23 -81 61 -81 16 0 67 20 113 44 46
25 105 48 131 52 89 13 180 -34 209 -107 19 -48 20 -75 2 -159 -53 -251 -284
-602 -574 -874 -79 -75 -97 -110 -67 -133 27 -19 53 -17 303 27 784 139 1319
284 1706 461 209 96 307 111 404 63 73 -36 107 -95 107 -184 0 -54 -6 -78 -38
-144 -42 -88 -44 -98 -20 -121 21 -22 52 -17 224 36 200 61 369 130 572 233
257 129 483 279 640 425 34 32 75 69 91 82 51 42 209 233 285 344 129 188 280
531 283 640 1 44 -18 90 -49 117 -17 16 -23 12 -128 -94 -295 -297 -651 -479
-1065 -544 -140 -22 -420 -22 -559 0 -626 98 -1138 473 -1424 1042 -193 383
-242 872 -132 1303 45 176 125 366 214 511 l50 80 -29 15 c-39 20 -99 19 -135
-3z"/>
</g>
</svg>
